<svg width="95" height="24" viewBox="0 0 95 24" fill="none" xmlns="http://www.w3.org/2000/svg">
<path d="M88.7353 20.3173V18.6357L90.3258 16.0714H88.9027L88.1074 17.5007L87.3122 16.0714H85.8472L87.4377 18.6357V20.3173H88.7353ZM84.2567 17.879H83.4614V17.2064H84.2567C84.4659 17.2064 84.6752 17.2905 84.6752 17.5427C84.6752 17.7529 84.4659 17.879 84.2567 17.879ZM86.0146 20.3173L85.2612 18.8039C85.5961 18.6357 86.0146 18.2574 86.0146 17.5007C86.0146 16.702 85.4705 16.0293 84.5078 16.0293H82.2476V20.2752H83.5451V18.93H84.0055L84.5915 20.2752H86.0146V20.3173ZM80.7407 20.3173V17.1644H81.8709V16.0293H78.3131V17.1644H79.4432V20.3173H80.7407ZM76.3458 20.4014C77.4759 20.4014 78.1875 19.8548 78.1875 18.93C78.1875 17.3325 75.8436 17.6688 75.8436 17.2905C75.8436 17.1644 75.9273 17.0803 76.1784 17.0803C76.597 17.0803 77.0574 17.2064 77.4341 17.5007L78.1038 16.5758C77.6015 16.1975 77.0155 15.9873 76.304 15.9873C75.132 15.9873 74.546 16.6599 74.546 17.4166C74.546 19.0982 76.9318 18.6778 76.9318 19.0982C76.9318 19.2663 76.7225 19.3083 76.4714 19.3083C75.8854 19.3083 75.425 19.0561 75.0901 18.7618L74.4204 19.7287C74.7971 20.1491 75.425 20.4014 76.3458 20.4014ZM74.0019 16.0714H72.7043V20.3173H74.0019V16.0714ZM70.2767 20.4014C71.1138 20.4014 71.7416 20.065 72.2021 19.5185V17.7529H70.1511V18.888H70.9464V19.0561C70.8208 19.1402 70.5278 19.2663 70.2767 19.2663C69.6488 19.2663 69.2303 18.8039 69.2303 18.2153C69.2303 17.6268 69.6488 17.1644 70.2767 17.1644C70.6534 17.1644 70.9464 17.4166 71.0719 17.7109L72.1602 17.1644C71.9091 16.6179 71.3231 16.0714 70.2767 16.0714C68.9791 16.0714 67.9327 16.9122 67.9327 18.2574C67.9746 19.5606 69.021 20.4014 70.2767 20.4014ZM67.5979 20.3173V19.1822H65.6725V18.7198H67.556V17.5848H65.6725V17.1644H67.5979V16.0293H64.3749V20.2752H67.5979V20.3173ZM62.1147 17.879H61.3194V17.2064H62.1147C62.324 17.2064 62.5333 17.2905 62.5333 17.5427C62.5333 17.7529 62.3658 17.879 62.1147 17.879ZM63.8727 20.3173L63.1193 18.8039C63.4541 18.6357 63.8727 18.2574 63.8727 17.5007C63.8727 16.702 63.3285 16.0293 62.3658 16.0293H60.1056V20.2752H61.4031V18.93H61.8636L62.4496 20.2752H63.8727V20.3173ZM56.213 17.879H55.4177V17.2064H56.213C56.4223 17.2064 56.6315 17.2905 56.6315 17.5427C56.6315 17.7529 56.4223 17.879 56.213 17.879ZM57.9291 20.3173L57.1757 18.8039C57.5105 18.6357 57.9291 18.2574 57.9291 17.5007C57.9291 16.702 57.3849 16.0293 56.4223 16.0293H54.162V20.2752H55.4596V18.93H55.92L56.506 20.2752H57.9291V20.3173ZM53.7016 20.3173V19.1822H51.7762V18.7198H53.6597V17.5848H51.7762V17.1644H53.7016V16.0293H50.4787V20.2752H53.7016V20.3173ZM47.8836 19.2243H47.2557V17.2064H47.8836C48.5533 17.2064 48.8881 17.6268 48.8881 18.2153C48.8881 18.7198 48.5114 19.2243 47.8836 19.2243ZM47.8836 20.3173C49.223 20.3173 50.1857 19.5606 50.1857 18.1733C50.1857 16.786 49.1811 16.0293 47.8417 16.0293H45.9582V20.2752H47.8836V20.3173ZM45.5396 16.0714H44.2421V20.3173H45.5396V16.0714ZM42.4423 20.3173L43.9909 16.0714H42.526L41.6051 18.93L40.6843 16.0714H39.2193L40.768 20.3173H42.4423ZM37.1265 19.2663C36.4987 19.2663 36.122 18.8039 36.122 18.2153C36.122 17.6268 36.5405 17.1644 37.1265 17.1644C37.7544 17.1644 38.1311 17.6268 38.1311 18.2153C38.1311 18.8039 37.7544 19.2663 37.1265 19.2663ZM37.1265 20.4014C38.4241 20.4014 39.4286 19.5185 39.4286 18.2153C39.4286 16.9122 38.4241 16.0293 37.1265 16.0293C35.829 16.0293 34.8244 16.9122 34.8244 18.2153C34.8244 19.5185 35.829 20.4014 37.1265 20.4014ZM32.8572 17.879H32.0619V17.2064H32.8572C33.0665 17.2064 33.2757 17.2905 33.2757 17.5427C33.2757 17.7529 33.0665 17.879 32.8572 17.879ZM34.5733 20.3173L33.8199 18.8039C34.1547 18.6357 34.5733 18.2574 34.5733 17.5007C34.5733 16.702 34.0292 16.0293 33.0665 16.0293H30.8062V20.2752H32.1038V18.93H32.5642L33.1502 20.2752H34.5733V20.3173ZM28.7553 17.879H27.96V17.2064H28.7553C28.9646 17.2064 29.132 17.3325 29.132 17.5427C29.132 17.7529 28.9646 17.879 28.7553 17.879ZM27.9181 20.3173V18.972H28.8808C29.8854 18.972 30.3877 18.2994 30.3877 17.5007C30.3877 16.702 29.8435 16.0293 28.8808 16.0293H26.6206V20.2752H27.9181V20.3173Z" fill="#121A45"/>
<path d="M11.1756 2.15674C8.58049 3.62809 5.81798 4.17459 2.88804 3.71216C2.88804 3.79624 2.88804 3.88032 2.88804 3.96439C2.88804 5.89817 2.88804 7.83194 2.88804 9.72367C2.88804 12.2039 3.5996 14.432 4.98086 16.4919C6.52954 18.7199 8.62235 20.3174 11.05 21.4104C11.0919 21.4104 11.0919 21.4104 11.1756 21.4524V2.15674ZM2.46948 6.99117C2.46948 5.85613 2.46948 4.72109 2.46948 3.62809C2.46948 3.33382 2.55319 3.24974 2.84619 3.29178C5.77613 3.7542 8.49678 3.24974 11.05 1.77839C11.1756 1.69431 11.3011 1.69431 11.4267 1.77839C13.9381 3.33382 16.7006 3.79624 19.5887 3.29178C19.8817 3.24974 19.9654 3.29178 19.9654 3.58605C19.9654 5.77205 20.0072 7.95805 19.9654 10.1441C19.9235 12.7504 19.0446 15.1466 17.454 17.2065C15.8635 19.3085 13.7707 20.8218 11.3849 21.9148C11.3012 21.9569 11.1756 21.9569 11.0919 21.9148C8.2875 20.6537 5.94355 18.846 4.31116 16.1556C3.09733 14.1798 2.51134 12.0778 2.51134 9.76571C2.46948 8.84086 2.46948 7.91602 2.46948 6.99117Z" fill="white"/>
<path d="M11.1756 2.15674C8.58049 3.62809 5.81798 4.17459 2.88804 3.71216C2.88804 3.79624 2.88804 3.88032 2.88804 3.96439C2.88804 5.89817 2.88804 7.83194 2.88804 9.72367C2.88804 12.2039 3.5996 14.432 4.98086 16.4919C6.52954 18.7199 8.62235 20.3174 11.05 21.4104C11.0919 21.4104 11.0919 21.4104 11.1756 21.4524V2.15674ZM2.46948 6.99117C2.46948 5.85613 2.46948 4.72109 2.46948 3.62809C2.46948 3.33382 2.55319 3.24974 2.84619 3.29178C5.77613 3.7542 8.49678 3.24974 11.05 1.77839C11.1756 1.69431 11.3011 1.69431 11.4267 1.77839C13.9381 3.33382 16.7006 3.79624 19.5887 3.29178C19.8817 3.24974 19.9654 3.29178 19.9654 3.58605C19.9654 5.77205 20.0072 7.95805 19.9654 10.1441C19.9235 12.7504 19.0446 15.1466 17.454 17.2065C15.8635 19.3085 13.7707 20.8218 11.3849 21.9148C11.3012 21.9569 11.1756 21.9569 11.0919 21.9148C8.2875 20.6537 5.94355 18.846 4.31116 16.1556C3.09733 14.1798 2.51134 12.0778 2.51134 9.76571C2.46948 8.84086 2.46948 7.91602 2.46948 6.99117Z" stroke="#1B6DA7" stroke-width="0.727"/>
<path d="M9.79429 16.4918L5.69238 12.3721L7.65963 10.3963L9.79429 12.5402L15.696 6.61279L17.6633 8.5886L9.79429 16.4918Z" fill="#1B6DA7"/>
<mask id="mask0_3005_29110" style="mask-type:alpha" maskUnits="userSpaceOnUse" x="2" y="1" width="10" height="21">
<path d="M11.4153 1.68115V21.9174C11.3707 21.9174 11.2006 21.9615 11.1559 21.9174C8.56623 20.7271 6.21948 19.0517 4.56744 16.7151C3.094 14.5989 2.33496 12.2181 2.33496 9.61695C2.33496 7.58891 2.33496 5.56088 2.33496 3.57693C2.33496 3.48875 2.33496 3.40058 2.33496 3.3124C5.46043 3.79737 8.64707 3.22422 11.4153 1.68115Z" fill="#1B6DA7"/>
</mask>
<g mask="url(#mask0_3005_29110)">
<path d="M11.2896 1.7251V21.9614C11.245 21.9614 11.2005 21.9614 11.1559 21.9173C8.57201 20.7269 6.3445 19.0957 4.69614 16.759C3.22598 14.6428 2.46863 12.2621 2.46863 9.6609C2.46863 7.63286 2.46863 5.60482 2.46863 3.62088C2.46863 3.5327 2.46863 3.44452 2.46863 3.35635C5.58714 3.84131 8.52746 3.26817 11.2896 1.7251Z" fill="#1B6DA7"/>
<path d="M9.79429 16.4918L5.69238 12.3721L7.65963 10.3963L9.79429 12.5402L15.696 6.61279L17.6633 8.5886L9.79429 16.4918Z" fill="white"/>
</g>
<path d="M84.6332 14.3059C86.5168 14.3059 87.9399 13.5492 88.9863 12.3721V8.4625H84.3403V10.9848H86.0982V11.3211C85.8052 11.5313 85.1774 11.7415 84.6332 11.7415C83.252 11.7415 82.3312 10.6905 82.3312 9.34531C82.3312 8.00008 83.252 6.94912 84.6332 6.94912C85.4704 6.94912 86.0982 7.53766 86.3912 8.12619L88.8189 6.86504C88.2329 5.64592 86.8935 4.38477 84.6332 4.38477C81.7452 4.38477 79.4012 6.2765 79.4012 9.30327C79.4431 12.4141 81.787 14.3059 84.6332 14.3059ZM78.6897 14.1377V4.59496H75.8016V9.13512L72.4949 4.59496H69.5231V14.1377H72.4112V9.30327L75.9271 14.1377H78.6897ZM68.8116 4.59496H65.9235V14.1377H68.8116V4.59496ZM65.2538 14.1377V4.59496H62.3657V9.13512L59.0591 4.59496H56.0873V14.1377H58.9754V9.30327L62.4913 14.1377H65.2538ZM55.2502 4.59496H52.3621V14.1377H55.2502V4.59496ZM47.5905 10.4804H45.7069L46.6278 7.41154L47.5905 10.4804ZM51.9435 14.1377L48.4276 4.59496H44.8279L41.312 14.1377H44.5768L44.9117 13.0027H48.3439L48.6787 14.1377H51.9435ZM37.2101 8.58862H35.4521V7.07523H37.2101C37.7124 7.07523 38.1309 7.28542 38.1309 7.83193C38.1728 8.37843 37.7124 8.58862 37.2101 8.58862ZM41.1027 14.1377L39.3866 10.7746C40.14 10.3963 41.1027 9.51347 41.1027 7.87396C41.1027 6.06631 39.8889 4.59496 37.6705 4.59496H32.6059V14.1377H35.494V11.153H36.5404L37.838 14.1377H41.1027ZM29.4248 14.1377V7.11727H31.9781V4.59496H24.0254V7.11727H26.5786V14.1377H29.4248Z" fill="#1B6DA7"/>
</svg>
